<svg xmlns="http://www.w3.org/2000/svg" viewBox="0 0 434.15 224"><defs><style>.cls-1{opacity:0;}.cls-2{fill:#c6c6c6;}.cls-3{fill:#ededed;}</style></defs><g id="Layer_2" data-name="Layer 2"><g id="Ebene_2" data-name="Ebene 2"><g class="cls-1"><path class="cls-2" d="M287.27,47c0,25.93-31.42,46.95-70.17,46.95s-70.17-21-70.17-46.95S178.35,0,217.1,0,287.27,21,287.27,47Z"/><path class="cls-3" d="M284.54,47c0,24.93-30.19,45.13-67.44,45.13S149.65,71.89,149.65,47,179.85,1.82,217.1,1.82,284.54,22,284.54,47Z"/><path class="cls-2" d="M237.47,41.29l9.37-19.71,19.52-7.93,153,106.92a42.51,42.51,0,0,1,3.63,2.54h0c6.92,5.42,11.11,12.45,11.11,20.13,0,17.12-20.74,31-46.32,31-15,0-28.26-4.75-36.72-12.12C329.2,147.68,256,100.18,256,100.18Z"/><path class="cls-2" d="M196.68,41.19l-9.37-19.72-19.52-7.92-153,106.92A40.53,40.53,0,0,0,11.11,123h0C4.19,128.43,0,135.45,0,143.14c0,17.11,20.74,31,46.32,31,15,0,28.26-4.75,36.72-12.12,21.91-14.43,95.08-61.94,95.08-61.94Z"/><path class="cls-2" d="M262,192.31,256.71,55.38c0-14.64-17.73-26.51-39.61-26.51s-39.62,11.87-39.62,26.51l-5.33,136.93c0,.52-.06,1.05-.06,1.58,0,16.63,20.15,30.11,45,30.11s45-13.48,45-30.11C262.1,193.36,262.08,192.83,262,192.31Z"/><path class="cls-3" d="M257.24,188.8,252.48,32.52c0-13.63-15.86-24.67-35.43-24.67s-35.43,11-35.43,24.67L176.85,188.8c0,.48,0,1,0,1.46,0,15.48,18,28,40.25,28s40.25-12.55,40.25-28C257.3,189.77,257.28,189.28,257.24,188.8Z"/><path class="cls-3" d="M184.88,47.82l32.17-34.27-45-.21L18.09,120.5a37.71,37.71,0,0,0-3.33,2.32h0c-6.34,5-10.18,11.4-10.18,18.45,0,15.69,19,28.41,42.46,28.41,13.71,0,25.9-4.35,33.67-11.11C100.78,145.35,184.88,47.82,184.88,47.82Z"/><path class="cls-3" d="M249.27,47.92,217.1,13.65l45-.2,154,107.15a35.78,35.78,0,0,1,3.33,2.33h0c6.34,5,10.18,11.41,10.18,18.45,0,15.69-19,28.42-42.46,28.42-13.72,0-25.91-4.36-33.67-11.11C333.37,145.45,249.27,47.92,249.27,47.92Z"/></g><g class="cls-1"><path class="cls-2" d="M287.27,47c0,25.93-31.42,46.95-70.17,46.95s-70.17-21-70.17-46.95S178.35,0,217.1,0,287.27,21,287.27,47Z"/><path class="cls-3" d="M284.54,47c0,24.93-30.19,45.13-67.44,45.13S149.65,71.89,149.65,47,179.85,1.82,217.1,1.82,284.54,22,284.54,47Z"/><path class="cls-2" d="M237.47,41.29l9.37-19.71,19.52-7.93,153,106.92a42.51,42.51,0,0,1,3.63,2.54h0c6.92,5.42,11.11,12.45,11.11,20.13,0,17.12-20.74,31-46.32,31-15,0-28.26-4.75-36.72-12.12C329.2,147.68,256,100.18,256,100.18Z"/><path class="cls-2" d="M196.68,41.19l-9.37-19.72-19.52-7.92-153,106.92A40.53,40.53,0,0,0,11.11,123h0C4.19,128.43,0,135.45,0,143.14c0,17.11,20.74,31,46.32,31,15,0,28.26-4.75,36.72-12.12,21.91-14.43,95.08-61.94,95.08-61.94Z"/><path class="cls-2" d="M262,192.31,256.71,55.38c0-14.64-17.73-26.51-39.61-26.51s-39.62,11.87-39.62,26.51l-5.33,136.93c0,.52-.06,1.05-.06,1.58,0,16.63,20.15,30.11,45,30.11s45-13.48,45-30.11C262.1,193.36,262.08,192.83,262,192.31Z"/><path class="cls-3" d="M257.24,188.8,252.48,32.52c0-13.63-15.86-24.67-35.43-24.67s-35.43,11-35.43,24.67L176.85,188.8c0,.48,0,1,0,1.46,0,15.48,18,28,40.25,28s40.25-12.55,40.25-28C257.3,189.77,257.28,189.28,257.24,188.8Z"/><path class="cls-3" d="M184.88,47.82l32.17-34.27-45-.21L18.09,120.5a37.71,37.71,0,0,0-3.33,2.32h0c-6.34,5-10.18,11.4-10.18,18.45,0,15.69,19,28.41,42.46,28.41,13.71,0,25.9-4.35,33.67-11.11C100.78,145.35,184.88,47.82,184.88,47.82Z"/><path class="cls-3" d="M249.27,47.92,217.1,13.65l45-.2,154,107.15a35.78,35.78,0,0,1,3.33,2.33h0c6.34,5,10.18,11.41,10.18,18.45,0,15.69-19,28.42-42.46,28.42-13.72,0-25.91-4.36-33.67-11.11C333.37,145.45,249.27,47.92,249.27,47.92Z"/></g><path class="cls-2" d="M373.58,172.78c-9.19-4.81-17.33-10.2-23.13-16.12h0c-20.84-16.46-81.76-86.09-97.61-104.34L257,188.8c0,.48.06,1,.06,1.46,0,15.48-18,28-40.25,28s-40.26-12.55-40.26-28c0-.49,0-1,.06-1.46l4.16-136.52C164.33,71.19,100.1,144.6,81.35,158c-5.73,5-11.35,9.57-16.78,13.6A48.55,48.55,0,0,0,82.8,162c19.52-12.86,79.77-52,92.64-60.35l-3.53,90.65c0,.52-.06,1.05-.06,1.58,0,16.63,20.15,30.11,45,30.11s45-13.48,45-30.11c0-.53,0-1.06-.06-1.58l-3.52-90.51c13,8.43,73.08,47.47,92.58,60.31C356.56,167.08,364.46,170.84,373.58,172.78Z"/></g></g></svg>