<svg width="1000" height="1000" viewBox="0 0 1000 1000" fill="none" xmlns="http://www.w3.org/2000/svg">
<path d="M183.03 13.64C179.78 15.75 176.14 20.15 174.8 23.59C173.27 27.8 172.69 68.57 172.69 162.17V294.62L164.65 296.92C133.65 306.3 108.38 350.13 87.9 430.14C68 508.23 50.2 648.72 50.2 729.11V745H36.61C23.79 745 22.64 745.38 16.51 751.51L10 758.02V867.5V976.98L16.51 983.49L23.02 990H500H976.98L983.49 983.49L990 976.98V867.5V758.02L983.49 751.51C977.37 745.38 976.22 745 964.54 745H952.1L950.95 716.67C942.34 530.62 910.75 379.03 868.84 322.76C859.08 309.55 847.59 300.56 835.34 296.92L827.3 294.62V161.78C827.3 16.31 827.49 18.9899 816.01 13.0599C810.84 10.3799 777.92 9.99999 499.62 9.99999C197.58 9.99999 188.77 10.19 183.03 13.64ZM785.2 172.7V295.2H500H214.8V172.7V50.2H500H785.2V172.7ZM835.34 342.47C860.03 368.88 890.27 488.9 902.72 611.01C905.78 640.3 909.04 689.87 910.18 724.32L910.95 744.99H500.57H90.39V735.8C90.39 718.57 94.22 653.88 97.28 622.49C108.57 500.18 136.71 380.93 162.93 345.33L168.86 337.29H499.61H830.36L835.34 342.47ZM948.85 867.5V948.85H500H51.15L50.58 869.42C50.39 825.78 50.58 788.84 51.15 787.69C51.72 785.78 144.17 785.39 500.38 785.78L948.84 786.16V867.5H948.85Z" fill="#BBC0C3"/>
<path d="M263.42 95.75C255.19 102.26 255 104.75 255 174.61V241.99L261.51 248.5L268.02 255.01H500H731.98L738.49 248.5L745 241.99V174.61C745 104.75 744.81 102.26 736.58 95.75C732.75 92.69 717.44 92.31 500 92.31C282.56 92.3 267.25 92.69 263.42 95.75ZM704.42 173.08L703.85 213.85H500H296.15L295.58 173.08L295.2 132.5H500H704.8L704.42 173.08Z" fill="#BBC0C3"/>
<path d="M227.05 419.61C224.75 420.38 221.12 423.63 218.82 426.5C215.18 431.09 214.8 433.96 214.8 458.08C214.8 486.98 216.33 492.92 224.56 497.32C232.79 501.53 317.97 501.15 326.01 496.94C334.82 492.34 337.3 484.3 337.3 458.66C337.3 418.46 335.96 417.7 274.71 417.89C250.79 417.89 229.16 418.65 227.05 419.61Z" fill="#BBC0C3"/>
<path d="M389.56 420.57C379.42 424.97 377.5 431.29 377.5 460.96V486.98L384.01 493.49L390.52 500H438.75H486.98L493.49 493.49L500 486.98V460.95C500 417.69 499.81 417.69 438.37 417.69C406.4 417.89 394.15 418.46 389.56 420.57Z" fill="#BBC0C3"/>
<path d="M552.25 420.76C542.68 425.55 540.19 433.2 540.19 458.66C540.19 473.59 541.15 483.16 542.87 487.56C547.85 499.23 551.87 500 602.4 500C664.03 500 662.69 500.96 662.69 457.89V431.09L657.14 424.96L651.59 418.64L604.89 418.07C565.46 417.7 557.42 418.08 552.25 420.76Z" fill="#BBC0C3"/>
<path d="M717.06 419.42C714.76 420.38 711.13 423.63 708.83 426.5C704.81 431.48 704.81 432.62 704.81 519.33C704.81 583.26 705.38 608.33 707.11 611.97C711.13 620.77 717.44 622.5 745.01 622.5C772.38 622.5 779.08 620.59 783.1 611.59C784.44 608.53 785.2 578.29 785.2 519.14V431.09L779.65 424.96L774.1 418.64L747.49 418.26C732.94 418.08 719.16 418.65 717.06 419.42Z" fill="#BBC0C3"/>
<path d="M227.05 542.11C224.75 542.88 221.12 546.13 218.82 549C215.18 553.79 214.8 556.47 214.8 582.12C214.99 623.65 213.27 622.51 275.09 622.51C325.62 622.51 329.64 621.74 334.62 610.07C338.45 600.5 338.26 561.07 334.24 552.65C328.88 541.17 323.9 540.21 274.71 540.4C250.79 540.39 229.16 541.15 227.05 542.11Z" fill="#BBC0C3"/>
<path d="M389.56 543.07C379.42 547.47 377.5 553.79 377.5 583.46V609.49L384.01 616L390.52 622.51H438.75H486.98L493.49 616L500 609.49V583.46C500 540.2 499.81 540.2 438.37 540.2C406.4 540.39 394.15 540.96 389.56 543.07Z" fill="#BBC0C3"/>
<path d="M552.25 543.26C542.68 548.05 540.19 555.7 540.19 581.16C540.19 596.09 541.15 605.66 542.87 610.06C547.85 621.73 551.86 622.5 602.4 622.5C664.03 622.5 662.69 623.46 662.69 580.39V553.59L657.14 547.46L651.59 541.14L604.89 540.57C565.46 540.2 557.42 540.58 552.25 543.26Z" fill="#BBC0C3"/>
</svg>
