<svg id="Ebene_2" data-name="Ebene 2" xmlns="http://www.w3.org/2000/svg" viewBox="0 0 1155.83 639.83"><defs><style>.cls-1{fill:#c6c6c6;}.cls-2{fill:#369a36;}.cls-3{fill:#bcbcbb;}.cls-4{fill:#c1c1c1;}.cls-5{fill:#ededed;}.cls-6{fill:none;stroke:#1d1d1b;stroke-miterlimit:10;}</style></defs><path class="cls-1" d="M489.14,299h0a42.51,42.51,0,0,0-3.63-2.54L337.11,192.83c-12.87-10.33-32.24-16.9-53.9-16.9-19.22,0-36.64,5.18-49.31,13.55h0l-.08.06c-.91.6-1.79,1.21-2.64,1.84L80.85,296.4a42.51,42.51,0,0,0-3.63,2.54h0c-6.92,5.42-11.11,12.44-11.11,20.13,0,17.12,20.73,31,46.31,31,15,0,28.26-4.75,36.73-12.12,19.52-12.86,79.77-52,92.64-60.35l-3.53,90.65c0,.52-.06,1.05-.06,1.58,0,16.63,20.15,30.11,45,30.11s45-13.48,45-30.11c0-.53,0-1.06-.06-1.58l-3.52-90.51c13,8.43,73.08,47.47,92.58,60.31,8.47,7.37,21.77,12.13,36.73,12.13,25.58,0,46.32-13.88,46.32-31C500.26,311.49,496.07,304.46,489.14,299Z" transform="translate(474.96 -175.93)"/><path class="cls-2" d="M678.88,374.13A39.94,39.94,0,1,1,639,334.2,39.94,39.94,0,0,1,678.88,374.13Z" transform="translate(474.96 -175.93)"/><path class="cls-3" d="M680.87,483.69c0,16.63-20.15,30.11-45,30.11s-45-13.48-45-30.11,20.15-30.12,45-30.12S680.87,467.05,680.87,483.69Z" transform="translate(474.96 -175.93)"/><path class="cls-3" d="M675.48,345.18c0,14.65-17.74,26.52-39.62,26.52s-39.61-11.87-39.61-26.52,17.73-26.51,39.61-26.51S675.48,330.54,675.48,345.18Z" transform="translate(474.96 -175.93)"/><polygon class="cls-4" points="1058.21 285.41 1063.6 146.91 1142.83 146.91 1148.22 285.41 1058.21 285.41"/><path class="cls-1" d="M-187.69,439c0,25.94-31.42,47-70.17,47S-328,465-328,439s31.42-47,70.17-47S-187.69,413.11-187.69,439Z" transform="translate(474.96 -175.93)"/><path class="cls-5" d="M-190.41,439c0,24.94-30.2,45.14-67.45,45.14S-325.31,464-325.31,439s30.2-45.13,67.45-45.13S-190.41,414.12-190.41,439Z" transform="translate(474.96 -175.93)"/><path class="cls-1" d="M-237.49,433.38l9.37-19.71,19.52-7.93,153,106.92a42.69,42.69,0,0,1,3.64,2.54h0c6.92,5.42,11.11,12.44,11.11,20.13,0,17.12-20.74,31-46.32,31-15,0-28.26-4.75-36.72-12.12-21.91-14.43-95.08-61.93-95.08-61.93Z" transform="translate(474.96 -175.93)"/><path class="cls-1" d="M-278.28,433.28l-9.37-19.72-19.52-7.92-153,106.92a38.92,38.92,0,0,0-3.63,2.53h0c-6.92,5.41-11.11,12.44-11.11,20.12,0,17.12,20.74,31,46.32,31,15,0,28.26-4.75,36.72-12.12,21.91-14.43,95.08-61.94,95.08-61.94Z" transform="translate(474.96 -175.93)"/><path class="cls-1" d="M-212.92,584.4l-5.32-136.93c0-14.64-17.74-26.51-39.62-26.51s-39.62,11.87-39.62,26.51L-302.8,584.4c0,.52-.07,1.05-.07,1.57,0,16.64,20.16,30.12,45,30.12s45-13.48,45-30.12C-212.86,585.45-212.88,584.92-212.92,584.4Z" transform="translate(474.96 -175.93)"/><path class="cls-4" d="M-158.66,480.75" transform="translate(474.96 -175.93)"/><path class="cls-5" d="M-217.71,580.89l-4.77-156.28c0-13.63-15.86-24.68-35.43-24.68s-35.43,11.05-35.43,24.68l-4.77,156.28c0,.48-.05,1-.05,1.46,0,15.48,18,28,40.25,28s40.25-12.55,40.25-28C-217.66,581.86-217.68,581.37-217.71,580.89Z" transform="translate(474.96 -175.93)"/><path class="cls-5" d="M-290.08,439.91l32.17-34.27-45-.21-154,107.16a37.71,37.71,0,0,0-3.33,2.32h0c-6.34,5-10.18,11.4-10.18,18.45,0,15.69,19,28.41,42.46,28.41,13.72,0,25.91-4.36,33.67-11.11C-374.18,537.44-290.08,439.91-290.08,439.91Z" transform="translate(474.96 -175.93)"/><path class="cls-5" d="M-225.69,440l-32.17-34.27,45-.2,154,107.15A35.78,35.78,0,0,1-55.57,515h0c6.34,5,10.18,11.41,10.18,18.45,0,15.69-19,28.41-42.46,28.41-13.71,0-25.91-4.35-33.67-11.11C-141.59,537.54-225.69,440-225.69,440Z" transform="translate(474.96 -175.93)"/><path class="cls-4" d="M382.41,264.6" transform="translate(474.96 -175.93)"/><path class="cls-1" d="M-187.69,439c0,25.94-31.42,47-70.17,47S-328,465-328,439s31.42-47,70.17-47S-187.69,413.11-187.69,439Z" transform="translate(474.96 -175.93)"/><path class="cls-5" d="M-190.41,439c0,24.94-30.2,45.14-67.45,45.14S-325.31,464-325.31,439s30.2-45.13,67.45-45.13S-190.41,414.12-190.41,439Z" transform="translate(474.96 -175.93)"/><path class="cls-1" d="M-237.49,433.38l9.37-19.71,19.52-7.93,153,106.92a42.69,42.69,0,0,1,3.64,2.54h0c6.92,5.42,11.11,12.44,11.11,20.13,0,17.12-20.74,31-46.32,31-15,0-28.26-4.75-36.72-12.12-21.91-14.43-95.08-61.93-95.08-61.93Z" transform="translate(474.96 -175.93)"/><path class="cls-1" d="M-278.28,433.28l-9.37-19.72-19.52-7.92-153,106.92a38.92,38.92,0,0,0-3.63,2.53h0c-6.92,5.41-11.11,12.44-11.11,20.12,0,17.12,20.74,31,46.32,31,15,0,28.26-4.75,36.72-12.12,21.91-14.43,95.08-61.94,95.08-61.94Z" transform="translate(474.96 -175.93)"/><path class="cls-1" d="M-212.92,584.4l-5.32-136.93c0-14.64-17.74-26.51-39.62-26.51s-39.62,11.87-39.62,26.51L-302.8,584.4c0,.52-.07,1.05-.07,1.57,0,16.64,20.16,30.12,45,30.12s45-13.48,45-30.12C-212.86,585.45-212.88,584.92-212.92,584.4Z" transform="translate(474.96 -175.93)"/><path class="cls-4" d="M-158.66,480.75" transform="translate(474.96 -175.93)"/><path class="cls-5" d="M-217.71,580.89l-4.77-156.28c0-13.63-15.86-24.68-35.43-24.68s-35.43,11.05-35.43,24.68l-4.77,156.28c0,.48-.05,1-.05,1.46,0,15.48,18,28,40.25,28s40.25-12.55,40.25-28C-217.66,581.86-217.68,581.37-217.71,580.89Z" transform="translate(474.96 -175.93)"/><path class="cls-5" d="M-290.08,439.91l32.17-34.27-45-.21-154,107.16a37.71,37.71,0,0,0-3.33,2.32h0c-6.34,5-10.18,11.4-10.18,18.45,0,15.69,19,28.41,42.46,28.41,13.72,0,25.91-4.36,33.67-11.11C-374.18,537.44-290.08,439.91-290.08,439.91Z" transform="translate(474.96 -175.93)"/><path class="cls-5" d="M-225.69,440l-32.17-34.27,45-.2,154,107.15A35.78,35.78,0,0,1-55.57,515h0c6.34,5,10.18,11.41,10.18,18.45,0,15.69-19,28.41-42.46,28.41-13.71,0-25.91-4.35-33.67-11.11C-141.59,537.54-225.69,440-225.69,440Z" transform="translate(474.96 -175.93)"/><path class="cls-5" d="M485.5,298.86h0a38.65,38.65,0,0,0-3.33-2.33L336.1,194.9c-12.35-10.44-31.45-17.15-52.89-17.15-17.3,0-33.06,4.36-45,11.53h0l0,0a61.17,61.17,0,0,0-6.93,4.82l-147,102.31c-1.17.73-2.28,1.51-3.33,2.32h0c-6.35,5-10.19,11.41-10.19,18.45,0,15.69,19,28.41,42.46,28.41,13.72,0,25.91-4.35,33.67-11.11,17.51-11.53,83.61-87.07,100.32-106.3L243,364.73c0,.49-.05,1-.05,1.47,0,15.48,18,28,40.25,28s40.25-12.54,40.25-28q0-.74-.06-1.47l-4.16-136.48C335.82,247.4,402,323.08,419.56,334.62c7.76,6.75,19.95,11.11,33.67,11.11,23.45,0,42.46-12.72,42.46-28.42C495.69,310.27,491.85,303.83,485.5,298.86Z" transform="translate(474.96 -175.93)"/><path class="cls-1" d="M429.59,764.54c-9.2-4.81-17.33-10.2-23.14-16.12h0C385.62,732,324.7,662.33,308.84,644.08L313,780.56c0,.48.06,1,.06,1.46,0,15.48-18,28-40.25,28s-40.25-12.55-40.25-28c0-.49,0-1,.05-1.46L236.77,644c-16.43,18.92-80.66,92.32-99.42,105.69-5.72,5-11.34,9.56-16.78,13.59a48.6,48.6,0,0,0,18.23-9.54c19.53-12.87,79.77-52,92.64-60.36l-3.53,90.66c0,.52-.06,1-.06,1.57,0,16.64,20.15,30.12,45,30.12s45-13.48,45-30.12c0-.53,0-1-.06-1.57l-3.52-90.52c13,8.43,73.09,47.47,92.59,60.32C412.57,758.83,420.47,762.6,429.59,764.54Z" transform="translate(474.96 -175.93)"/><line class="cls-6" x1="541.07" y1="143.41" x2="715.34" y2="143.41"/></svg>