<svg width="490" height="490" viewBox="0 0 490 490" fill="none" xmlns="http://www.w3.org/2000/svg">
<g clip-path="url(#clip0_11_56)">
<path d="M184.242 250.089C228.142 226.788 248.742 174.686 234.042 126.784C231.342 118.183 228.942 109.283 227.042 100.382C219.242 60.3807 229.742 10.1784 273.742 1.27801C295.942 -3.4222 318.042 5.17821 333.642 21.4789C380.143 71.9812 365.943 224.088 365.543 262.19C365.543 278.891 365.143 295.991 358.542 311.592C343.742 346.594 302.142 360.594 265.242 370.295C204.642 392.396 166.442 364.494 153.642 343.893C140.842 323.292 131.542 277.49 184.242 250.089Z" fill="#788287"/>
<path d="M141.842 401.396C159.239 401.396 173.342 421.231 173.342 445.698C173.342 470.165 159.239 490 141.842 490C124.444 490 110.341 470.165 110.341 445.698C110.341 421.231 124.444 401.396 141.842 401.396Z" fill="#788287"/>
<path d="M214.642 411.896C224.97 411.896 233.342 423.717 233.342 438.298C233.342 452.879 224.97 464.699 214.642 464.699C204.314 464.699 195.942 452.879 195.942 438.298C195.942 423.717 204.314 411.896 214.642 411.896Z" fill="#788287"/>
<path d="M272.942 398.696C282.165 398.696 289.642 409.128 289.642 421.997C289.642 434.866 282.165 445.298 272.942 445.298C263.719 445.298 256.242 434.866 256.242 421.997C256.242 409.128 263.719 398.696 272.942 398.696Z" fill="#788287"/>
<path d="M326.142 387.695C334.316 387.695 340.942 396.919 340.942 408.296C340.942 419.674 334.316 428.897 326.142 428.897C317.968 428.897 311.342 419.674 311.342 408.296C311.342 396.919 317.968 387.695 326.142 387.695Z" fill="#788287"/>
<path d="M353.283 383.438C351.248 373.538 355.386 364.322 362.527 362.854C369.668 361.386 377.107 368.221 379.142 378.121C381.178 388.021 377.039 397.237 369.898 398.705C362.758 400.174 355.319 393.338 353.283 383.438Z" fill="#788287"/>
</g>
<defs>
<clipPath id="clip0_11_56">
<rect width="490" height="490" fill="white"/>
</clipPath>
</defs>
</svg>
