<svg width="490" height="490" viewBox="0 0 490 490" fill="none" xmlns="http://www.w3.org/2000/svg">
<g clip-path="url(#clip0_11_64)">
<path d="M305.758 250.089C261.858 226.788 241.258 174.686 255.958 126.784C258.658 118.183 261.058 109.283 262.958 100.383C270.758 60.3808 260.258 10.1785 216.258 1.2781C194.058 -3.42211 171.958 5.17828 156.358 21.479C109.857 71.9813 124.058 224.088 124.457 262.19C124.457 278.891 124.857 295.991 131.458 311.592C146.258 346.594 187.858 360.594 224.758 370.295C285.358 392.396 323.558 364.494 336.358 343.893C349.158 323.293 358.459 277.49 305.758 250.089Z" fill="#788287"/>
<path d="M348.158 401.396C330.761 401.396 316.658 421.231 316.658 445.698C316.658 470.165 330.761 490 348.158 490C365.555 490 379.659 470.165 379.659 445.698C379.659 421.231 365.555 401.396 348.158 401.396Z" fill="#788287"/>
<path d="M275.358 411.896C265.03 411.896 256.658 423.717 256.658 438.298C256.658 452.879 265.03 464.699 275.358 464.699C285.686 464.699 294.058 452.879 294.058 438.298C294.058 423.717 285.686 411.896 275.358 411.896Z" fill="#788287"/>
<path d="M217.058 398.696C207.835 398.696 200.358 409.128 200.358 421.997C200.358 434.866 207.835 445.298 217.058 445.298C226.281 445.298 233.758 434.866 233.758 421.997C233.758 409.128 226.281 398.696 217.058 398.696Z" fill="#788287"/>
<path d="M163.858 387.695C155.684 387.695 149.058 396.919 149.058 408.296C149.058 419.674 155.684 428.897 163.858 428.897C172.031 428.897 178.658 419.674 178.658 408.296C178.658 396.919 172.032 387.695 163.858 387.695Z" fill="#788287"/>
<path d="M136.717 383.438C138.752 373.538 134.614 364.322 127.473 362.854C120.332 361.386 112.893 368.221 110.858 378.121C108.822 388.021 112.961 397.237 120.102 398.705C127.242 400.174 134.681 393.338 136.717 383.438Z" fill="#788287"/>
</g>
<defs>
<clipPath id="clip0_11_64">
<rect width="490" height="490" fill="white"/>
</clipPath>
</defs>
</svg>
