<svg width="807" height="535" viewBox="0 0 807 535" fill="none" xmlns="http://www.w3.org/2000/svg">
<g clip-path="url(#clip0_11_41)">
<path d="M305.758 295.089C261.858 271.788 241.258 219.686 255.958 171.784C258.658 163.183 261.058 154.283 262.958 145.383C270.758 105.381 260.258 55.1785 216.258 46.2781C194.058 41.5779 171.958 50.1783 156.358 66.479C109.857 116.981 124.058 269.088 124.457 307.19C124.457 323.891 124.857 340.991 131.458 356.592C146.258 391.594 187.858 405.594 224.758 415.295C285.358 437.396 323.558 409.494 336.358 388.893C349.158 368.293 358.459 322.491 305.758 295.089Z" fill="#788287"/>
<path d="M348.158 446.396C330.761 446.396 316.658 466.231 316.658 490.698C316.658 515.165 330.761 535 348.158 535C365.555 535 379.659 515.165 379.659 490.698C379.659 466.231 365.555 446.396 348.158 446.396Z" fill="#788287"/>
<path d="M275.358 456.897C265.03 456.897 256.658 468.717 256.658 483.298C256.658 497.879 265.03 509.699 275.358 509.699C285.686 509.699 294.058 497.879 294.058 483.298C294.058 468.717 285.686 456.897 275.358 456.897Z" fill="#788287"/>
<path d="M217.058 443.696C207.835 443.696 200.358 454.128 200.358 466.997C200.358 479.866 207.835 490.298 217.058 490.298C226.281 490.298 233.758 479.866 233.758 466.997C233.758 454.128 226.281 443.696 217.058 443.696Z" fill="#788287"/>
<path d="M163.858 432.695C155.684 432.695 149.058 441.919 149.058 453.296C149.058 464.674 155.684 473.897 163.858 473.897C172.031 473.897 178.658 464.674 178.658 453.296C178.658 441.919 172.032 432.695 163.858 432.695Z" fill="#788287"/>
<path d="M136.717 428.438C138.752 418.538 134.614 409.322 127.473 407.854C120.332 406.386 112.893 413.221 110.858 423.121C108.822 433.021 112.961 442.237 120.102 443.705C127.242 445.174 134.681 438.338 136.717 428.438Z" fill="#788287"/>
<path d="M500.89 250.387C544.79 227.086 565.39 174.984 550.69 127.082C547.99 118.481 545.59 109.581 543.69 100.68C535.89 60.6785 546.39 10.4763 590.39 1.57585C612.591 -3.12435 634.691 5.47605 650.291 21.7768C696.791 72.2791 682.591 224.386 682.191 262.488C682.191 279.188 681.791 296.289 675.191 311.89C660.391 346.891 618.79 360.892 581.89 370.593C521.29 392.693 483.09 364.792 470.29 344.191C457.49 323.59 448.19 277.788 500.89 250.387Z" fill="#788287"/>
<path d="M458.49 401.694C475.887 401.694 489.99 421.529 489.99 445.996C489.99 470.463 475.887 490.298 458.49 490.298C441.093 490.298 426.99 470.463 426.99 445.996C426.99 421.529 441.093 401.694 458.49 401.694Z" fill="#788287"/>
<path d="M531.29 412.194C541.618 412.194 549.99 424.015 549.99 438.596C549.99 453.177 541.618 464.997 531.29 464.997C520.962 464.997 512.59 453.177 512.59 438.596C512.59 424.015 520.962 412.194 531.29 412.194Z" fill="#788287"/>
<path d="M589.59 398.994C598.814 398.994 606.29 409.426 606.29 422.295C606.29 435.164 598.814 445.596 589.59 445.596C580.367 445.596 572.89 435.164 572.89 422.295C572.89 409.426 580.367 398.994 589.59 398.994Z" fill="#788287"/>
<path d="M642.791 387.993C650.964 387.993 657.591 397.217 657.591 408.594C657.591 419.972 650.964 429.195 642.791 429.195C634.617 429.195 627.99 419.972 627.99 408.594C627.99 397.217 634.617 387.993 642.791 387.993Z" fill="#788287"/>
<path d="M669.932 383.736C667.896 373.836 672.035 364.62 679.175 363.152C686.316 361.684 693.755 368.519 695.791 378.419C697.826 388.319 693.687 397.535 686.547 399.003C679.406 400.471 671.967 393.636 669.932 383.736Z" fill="#788287"/>
</g>
<defs>
<clipPath id="clip0_11_41">
<rect width="807" height="535" fill="white"/>
</clipPath>
</defs>
</svg>
