<svg width="21" height="7" viewBox="0 0 21 7" fill="none" xmlns="http://www.w3.org/2000/svg">
<path d="M19.5 0.25C19.2348 0.25 18.9804 0.355357 18.7929 0.542893C18.6054 0.73043 18.5 0.984784 18.5 1.25V4.25H2.5V1.25C2.5 0.984784 2.39464 0.73043 2.20711 0.542893C2.01957 0.355357 1.76522 0.25 1.5 0.25C1.23478 0.25 0.98043 0.355357 0.792893 0.542893C0.605357 0.73043 0.5 0.984784 0.5 1.25V5.25C0.5 5.51522 0.605357 5.76957 0.792893 5.95711C0.98043 6.14464 1.23478 6.25 1.5 6.25H19.5C19.7652 6.25 20.0196 6.14464 20.2071 5.95711C20.3946 5.76957 20.5 5.51522 20.5 5.25V1.25C20.5 0.984784 20.3946 0.73043 20.2071 0.542893C20.0196 0.355357 19.7652 0.25 19.5 0.25Z" fill="#80898E"/>
</svg>
