<svg width="575" height="574" viewBox="0 0 575 574" fill="none" xmlns="http://www.w3.org/2000/svg">
<path fill-rule="evenodd" clip-rule="evenodd" d="M15.5 0.5C7.21573 0.5 0.5 7.21573 0.5 15.5V559C0.5 567.284 7.21571 574 15.5 574H560C568.284 574 575 567.284 575 559V15.5C575 7.21573 568.284 0.5 560 0.5H15.5ZM61.75 111C89.3642 111 111.75 88.6142 111.75 61C111.75 33.3858 89.3642 11 61.75 11C34.1358 11 11.75 33.3858 11.75 61C11.75 88.6142 34.1358 111 61.75 111ZM224.75 61C224.75 88.6142 202.364 111 174.75 111C147.136 111 124.75 88.6142 124.75 61C124.75 33.3858 147.136 11 174.75 11C202.364 11 224.75 33.3858 224.75 61ZM287.75 111C315.364 111 337.75 88.6142 337.75 61C337.75 33.3858 315.364 11 287.75 11C260.136 11 237.75 33.3858 237.75 61C237.75 88.6142 260.136 111 287.75 111ZM450.75 61C450.75 88.6142 428.364 111 400.75 111C373.136 111 350.75 88.6142 350.75 61C350.75 33.3858 373.136 11 400.75 11C428.364 11 450.75 33.3858 450.75 61ZM513.75 111C541.364 111 563.75 88.6142 563.75 61C563.75 33.3858 541.364 11 513.75 11C486.136 11 463.75 33.3858 463.75 61C463.75 88.6142 486.136 111 513.75 111ZM111.75 174.125C111.75 201.739 89.3642 224.125 61.75 224.125C34.1358 224.125 11.75 201.739 11.75 174.125C11.75 146.511 34.1358 124.125 61.75 124.125C89.3642 124.125 111.75 146.511 111.75 174.125ZM174.75 224.125C202.364 224.125 224.75 201.739 224.75 174.125C224.75 146.511 202.364 124.125 174.75 124.125C147.136 124.125 124.75 146.511 124.75 174.125C124.75 201.739 147.136 224.125 174.75 224.125ZM337.75 174.125C337.75 201.739 315.364 224.125 287.75 224.125C260.136 224.125 237.75 201.739 237.75 174.125C237.75 146.511 260.136 124.125 287.75 124.125C315.364 124.125 337.75 146.511 337.75 174.125ZM400.75 224.125C428.364 224.125 450.75 201.739 450.75 174.125C450.75 146.511 428.364 124.125 400.75 124.125C373.136 124.125 350.75 146.511 350.75 174.125C350.75 201.739 373.136 224.125 400.75 224.125ZM563.75 174.125C563.75 201.739 541.364 224.125 513.75 224.125C486.136 224.125 463.75 201.739 463.75 174.125C463.75 146.511 486.136 124.125 513.75 124.125C541.364 124.125 563.75 146.511 563.75 174.125ZM61.75 337.25C89.3642 337.25 111.75 314.864 111.75 287.25C111.75 259.636 89.3642 237.25 61.75 237.25C34.1358 237.25 11.75 259.636 11.75 287.25C11.75 314.864 34.1358 337.25 61.75 337.25ZM224.75 287.25C224.75 314.864 202.364 337.25 174.75 337.25C147.136 337.25 124.75 314.864 124.75 287.25C124.75 259.636 147.136 237.25 174.75 237.25C202.364 237.25 224.75 259.636 224.75 287.25ZM287.75 337.25C315.364 337.25 337.75 314.864 337.75 287.25C337.75 259.636 315.364 237.25 287.75 237.25C260.136 237.25 237.75 259.636 237.75 287.25C237.75 314.864 260.136 337.25 287.75 337.25ZM450.75 287.25C450.75 314.864 428.364 337.25 400.75 337.25C373.136 337.25 350.75 314.864 350.75 287.25C350.75 259.636 373.136 237.25 400.75 237.25C428.364 237.25 450.75 259.636 450.75 287.25ZM513.75 337.25C541.364 337.25 563.75 314.864 563.75 287.25C563.75 259.636 541.364 237.25 513.75 237.25C486.136 237.25 463.75 259.636 463.75 287.25C463.75 314.864 486.136 337.25 513.75 337.25ZM111.75 400.375C111.75 427.989 89.3642 450.375 61.75 450.375C34.1358 450.375 11.75 427.989 11.75 400.375C11.75 372.761 34.1358 350.375 61.75 350.375C89.3642 350.375 111.75 372.761 111.75 400.375ZM174.75 450.375C202.364 450.375 224.75 427.989 224.75 400.375C224.75 372.761 202.364 350.375 174.75 350.375C147.136 350.375 124.75 372.761 124.75 400.375C124.75 427.989 147.136 450.375 174.75 450.375ZM337.75 400.375C337.75 427.989 315.364 450.375 287.75 450.375C260.136 450.375 237.75 427.989 237.75 400.375C237.75 372.761 260.136 350.375 287.75 350.375C315.364 350.375 337.75 372.761 337.75 400.375ZM400.75 450.375C428.364 450.375 450.75 427.989 450.75 400.375C450.75 372.761 428.364 350.375 400.75 350.375C373.136 350.375 350.75 372.761 350.75 400.375C350.75 427.989 373.136 450.375 400.75 450.375ZM563.75 400.375C563.75 427.989 541.364 450.375 513.75 450.375C486.136 450.375 463.75 427.989 463.75 400.375C463.75 372.761 486.136 350.375 513.75 350.375C541.364 350.375 563.75 372.761 563.75 400.375ZM61.75 563.5C89.3642 563.5 111.75 541.114 111.75 513.5C111.75 485.886 89.3642 463.5 61.75 463.5C34.1358 463.5 11.75 485.886 11.75 513.5C11.75 541.114 34.1358 563.5 61.75 563.5ZM224.75 513.5C224.75 541.114 202.364 563.5 174.75 563.5C147.136 563.5 124.75 541.114 124.75 513.5C124.75 485.886 147.136 463.5 174.75 463.5C202.364 463.5 224.75 485.886 224.75 513.5ZM287.75 563.5C315.364 563.5 337.75 541.114 337.75 513.5C337.75 485.886 315.364 463.5 287.75 463.5C260.136 463.5 237.75 485.886 237.75 513.5C237.75 541.114 260.136 563.5 287.75 563.5ZM450.75 513.5C450.75 541.114 428.364 563.5 400.75 563.5C373.136 563.5 350.75 541.114 350.75 513.5C350.75 485.886 373.136 463.5 400.75 463.5C428.364 463.5 450.75 485.886 450.75 513.5ZM513.75 563.5C541.364 563.5 563.75 541.114 563.75 513.5C563.75 485.886 541.364 463.5 513.75 463.5C486.136 463.5 463.75 485.886 463.75 513.5C463.75 541.114 486.136 563.5 513.75 563.5Z" fill="#D6D9DB"/>
</svg>
