<svg width="496" height="496" viewBox="0 0 496 496" fill="none" xmlns="http://www.w3.org/2000/svg">
<g clip-path="url(#clip0_8_3)">
<path d="M248.455 0.000412084C314.724 0.119418 374.893 26.2334 419.315 68.6854L455.029 32.9714C470.149 17.8514 496 28.5594 496 49.9414L496 184C496 197.255 485.255 208 472 208L337.941 208C316.559 208 305.851 182.149 320.97 167.029L362.72 125.279C331.856 96.3804 291.919 80.3724 249.49 80.0063C157.092 79.2083 79.207 153.983 80.006 249.448C80.764 340.009 154.184 416 248 416C289.127 416 327.997 401.322 358.63 374.444C363.373 370.283 370.536 370.536 374.998 374.997L414.66 414.659C419.532 419.531 419.291 427.474 414.178 432.092C370.202 471.813 311.926 496 248 496C111.034 496 0.00102547 384.967 3.74468e-05 248.002C-0.000950593 111.193 111.646 -0.2446 248.455 0.000412084Z" fill="white"/>
</g>
<defs>
<clipPath id="clip0_8_3">
<rect width="496" height="496" fill="white" transform="matrix(-1 -8.74228e-08 -8.74228e-08 1 496 3.05176e-05)"/>
</clipPath>
</defs>
</svg>
