<svg width="721" height="686" viewBox="0 0 721 686" fill="none" xmlns="http://www.w3.org/2000/svg">
<path d="M712.205 0.890381H652.205C647.805 0.890381 644.205 4.49038 644.205 8.89038V526.89H158.205V453.89C158.205 447.19 150.405 443.39 145.205 447.59L3.30533 559.59C2.34915 560.339 1.57585 561.295 1.04404 562.386C0.512222 563.478 0.23584 564.676 0.23584 565.89C0.23584 567.105 0.512222 568.303 1.04404 569.394C1.57585 570.486 2.34915 571.442 3.30533 572.19L145.205 684.19C150.505 688.39 158.205 684.59 158.205 677.89V602.89H656.205C691.505 602.89 720.205 574.19 720.205 538.89V8.89038C720.205 4.49038 716.605 0.890381 712.205 0.890381Z" fill="#80898E"/>
</svg>
