<svg width="15" height="13" viewBox="0 0 15 13" fill="none" xmlns="http://www.w3.org/2000/svg">
<path d="M6.77006 0.316553C6.8636 0.216642 6.97665 0.136995 7.10222 0.082545C7.22778 0.0280948 7.36319 0 7.50006 0C7.63692 0 7.77233 0.0280948 7.8979 0.082545C8.02346 0.136995 8.13652 0.216642 8.23006 0.316553L14.5751 7.08655C15.1751 7.72455 14.7211 8.76955 13.8451 8.76955H11.0001V11.7696C11.0001 12.0348 10.8947 12.2891 10.7072 12.4767C10.5196 12.6642 10.2653 12.7696 10.0001 12.7696H5.00006C4.73484 12.7696 4.48049 12.6642 4.29295 12.4767C4.10541 12.2891 4.00006 12.0348 4.00006 11.7696V8.76955H1.15406C0.280057 8.76955 -0.173943 7.72455 0.424057 7.08555L6.77006 0.316553Z" fill="#80898E"/>
</svg>
